<svg width="100%" viewBox="0 0 680 280" xmlns="http://www.w3.org/2000/svg" role="img">
<title>Maxime Belliard — Cybersecurity Analyst profile banner</title>
<desc>Dark banner with hexagon icon, name, title, and framework tags</desc>

<rect x="0" y="0" width="680" height="280" rx="12" fill="rgb(13,17,23)"/>

<line x1="40" y1="0" x2="40" y2="280" stroke="rgb(29,158,117)" stroke-width="0.4" opacity="0.2"/>
<line x1="120" y1="0" x2="120" y2="280" stroke="rgb(29,158,117)" stroke-width="0.4" opacity="0.2"/>
<line x1="200" y1="0" x2="200" y2="280" stroke="rgb(29,158,117)" stroke-width="0.4" opacity="0.2"/>
<line x1="560" y1="0" x2="560" y2="280" stroke="rgb(29,158,117)" stroke-width="0.4" opacity="0.2"/>
<line x1="640" y1="0" x2="640" y2="280" stroke="rgb(29,158,117)" stroke-width="0.4" opacity="0.2"/>
<line x1="0" y1="50" x2="680" y2="50" stroke="rgb(29,158,117)" stroke-width="0.4" opacity="0.2"/>
<line x1="0" y1="230" x2="680" y2="230" stroke="rgb(29,158,117)" stroke-width="0.4" opacity="0.2"/>

<polygon points="115,44 175,72 175,148 115,178 55,148 55,72" fill="rgb(29,158,117)" opacity="0.9"/>
<polygon points="115,56 163,80 163,143 115,170 67,143 67,80" fill="rgb(13,17,23)"/>
<polygon points="115,72 151,90 151,136 115,154 79,136 79,90" fill="rgb(55,138,221)" opacity="0.12"/>

<polyline points="79,118 91,104 103,116 115,98 127,110 139,94 151,106 163,118" fill="none" stroke="rgb(29,158,117)" stroke-width="1.5" opacity="0.85" stroke-linejoin="round" stroke-linecap="round"/>

<circle cx="115" cy="136" r="4" fill="rgb(55,138,221)"/>
<line x1="115" y1="132" x2="115" y2="100" stroke="rgb(55,138,221)" stroke-width="1.5" opacity="0.8"/>

<text x="210" y="108" font-family="monospace" font-size="32" font-weight="700" fill="rgb(255,255,255)">MAXIME</text>
<text x="210" y="148" font-family="monospace" font-size="32" font-weight="700" fill="rgb(29,158,117)">BELLIARD</text>

<text x="212" y="174" font-family="monospace" font-size="13" font-weight="400" fill="rgb(29,158,117)" opacity="0.85">Cybersecurity Analyst · GRC &amp; Technical Security</text>

<rect x="210" y="190" width="70" height="20" rx="3" fill="rgb(29,158,117)" opacity="0.15"/>
<rect x="288" y="190" width="84" height="20" rx="3" fill="rgb(224,82,82)" opacity="0.15"/>
<rect x="380" y="190" width="68" height="20" rx="3" fill="rgb(239,159,39)" opacity="0.15"/>
<rect x="456" y="190" width="36" height="20" rx="3" fill="rgb(55,138,221)" opacity="0.15"/>
<rect x="500" y="190" width="88" height="20" rx="3" fill="rgb(180,100,220)" opacity="0.15"/>
<rect x="596" y="190" width="44" height="20" rx="3" fill="rgb(239,120,60)" opacity="0.15"/>

<text x="214" y="204" font-family="monospace" font-size="10" fill="rgb(29,158,117)">ISO 27001</text>
<text x="292" y="204" font-family="monospace" font-size="10" fill="rgb(224,82,82)">MITRE ATT&amp;CK</text>
<text x="384" y="204" font-family="monospace" font-size="10" fill="rgb(239,159,39)">EBIOS RM</text>
<text x="460" y="204" font-family="monospace" font-size="10" fill="rgb(55,138,221)">NIS2</text>
<text x="504" y="204" font-family="monospace" font-size="10" fill="rgb(180,100,220)">Windows Server</text>
<text x="600" y="204" font-family="monospace" font-size="10" fill="rgb(239,120,60)">Linux</text>

<text x="212" y="242" font-family="monospace" font-size="10" fill="rgb(255,255,255)" opacity="0.5">github.com/MaxBell10</text>
<text x="212" y="257" font-family="monospace" font-size="10" fill="rgb(255,255,255)" opacity="0.5">Belgium · Open to internal security roles</text>

<circle cx="590" cy="70" r="3" fill="rgb(29,158,117)" opacity="0.6"/>
<circle cx="625" cy="88" r="2" fill="rgb(55,138,221)" opacity="0.5"/>
<circle cx="608" cy="110" r="2.5" fill="rgb(239,159,39)" opacity="0.5"/>
<circle cx="582" cy="132" r="2" fill="rgb(29,158,117)" opacity="0.4"/>
<circle cx="642" cy="145" r="3" fill="rgb(55,138,221)" opacity="0.5"/>
<circle cx="598" cy="168" r="2" fill="rgb(239,159,39)" opacity="0.4"/>
<circle cx="628" cy="188" r="2.5" fill="rgb(29,158,117)" opacity="0.5"/>
<circle cx="572" cy="198" r="2" fill="rgb(55,138,221)" opacity="0.4"/>

<line x1="590" y1="70" x2="625" y2="88" stroke="rgb(55,138,221)" stroke-width="0.8" opacity="0.35" fill="none"/>
<line x1="625" y1="88" x2="608" y2="110" stroke="rgb(55,138,221)" stroke-width="0.8" opacity="0.35" fill="none"/>
<line x1="608" y1="110" x2="642" y2="145" stroke="rgb(55,138,221)" stroke-width="0.8" opacity="0.35" fill="none"/>
<line x1="642" y1="145" x2="628" y2="188" stroke="rgb(55,138,221)" stroke-width="0.8" opacity="0.35" fill="none"/>
<line x1="590" y1="70" x2="582" y2="132" stroke="rgb(55,138,221)" stroke-width="0.8" opacity="0.35" fill="none"/>
<line x1="582" y1="132" x2="572" y2="198" stroke="rgb(55,138,221)" stroke-width="0.8" opacity="0.35" fill="none"/>
<line x1="608" y1="110" x2="598" y2="168" stroke="rgb(55,138,221)" stroke-width="0.8" opacity="0.35" fill="none"/>
</svg>
