<svg width="100%" viewBox="0 0 680 280" xmlns="http://www.w3.org/2000/svg" role="img">
<title>Maxime Belliard — Cybersecurity, Technical &amp; GRC — profile banner</title>
<desc>Dark banner with hexagon icon, name, title, and framework tags</desc>

<rect x="0" y="0" width="680" height="280" rx="12" fill="rgb(13,17,23)"/>

<line x1="40" y1="0" x2="40" y2="280" stroke="rgb(29,158,117)" stroke-width="0.4" opacity="0.2"/>
<line x1="120" y1="0" x2="120" y2="280" stroke="rgb(29,158,117)" stroke-width="0.4" opacity="0.2"/>
<line x1="200" y1="0" x2="200" y2="280" stroke="rgb(29,158,117)" stroke-width="0.4" opacity="0.2"/>
<line x1="560" y1="0" x2="560" y2="280" stroke="rgb(29,158,117)" stroke-width="0.4" opacity="0.2"/>
<line x1="640" y1="0" x2="640" y2="280" stroke="rgb(29,158,117)" stroke-width="0.4" opacity="0.2"/>
<line x1="0" y1="50" x2="680" y2="50" stroke="rgb(29,158,117)" stroke-width="0.4" opacity="0.2"/>
<line x1="0" y1="230" x2="680" y2="230" stroke="rgb(29,158,117)" stroke-width="0.4" opacity="0.2"/>

<polygon points="115,24 175,52 175,128 115,158 55,128 55,52" fill="rgb(29,158,117)" opacity="0.9"/>
<polygon points="115,36 163,60 163,123 115,150 67,123 67,60" fill="rgb(13,17,23)"/>
<polygon points="115,52 151,70 151,116 115,134 79,116 79,70" fill="rgb(55,138,221)" opacity="0.12"/>
<polyline points="79,98 91,84 103,96 115,78 127,90 139,74 151,86 163,98" fill="none" stroke="rgb(29,158,117)" stroke-width="1.5" opacity="0.85" stroke-linejoin="round" stroke-linecap="round"/>
<circle cx="115" cy="116" r="4" fill="rgb(55,138,221)"/>
<line x1="115" y1="112" x2="115" y2="80" stroke="rgb(55,138,221)" stroke-width="1.5" opacity="0.8"/>

<text x="210" y="108" font-family="monospace" font-size="32" font-weight="700" fill="rgb(255,255,255)">MAXIME</text>
<text x="210" y="148" font-family="monospace" font-size="32" font-weight="700" fill="rgb(29,158,117)">BELLIARD</text>
<text x="212" y="174" font-family="monospace" font-size="12" font-weight="400" fill="rgb(29,158,117)" opacity="0.85">Cybersecurity · Technical &amp; GRC · Logistics &amp; OT background</text>

<rect x="210" y="190" width="65" height="20" rx="3" fill="rgb(239,120,60)" opacity="0.15"/>
<rect x="283" y="190" width="83" height="20" rx="3" fill="rgb(224,82,82)" opacity="0.15"/>
<rect x="374" y="190" width="59" height="20" rx="3" fill="rgb(239,159,39)" opacity="0.15"/>
<rect x="441" y="190" width="35" height="20" rx="3" fill="rgb(55,138,221)" opacity="0.15"/>
<rect x="484" y="190" width="95" height="20" rx="3" fill="rgb(180,100,220)" opacity="0.15"/>
<text x="242.5" y="204" text-anchor="middle" font-family="monospace" font-size="10" fill="rgb(239,120,60)">ISO 27001</text>
<text x="324.5" y="204" text-anchor="middle" font-family="monospace" font-size="10" fill="rgb(224,82,82)">MITRE ATT&amp;CK</text>
<text x="403.5" y="204" text-anchor="middle" font-family="monospace" font-size="10" fill="rgb(239,159,39)">EBIOS RM</text>
<text x="458.5" y="204" text-anchor="middle" font-family="monospace" font-size="10" fill="rgb(55,138,221)">NIS2</text>
<text x="531.5" y="204" text-anchor="middle" font-family="monospace" font-size="10" fill="rgb(180,100,220)">CIS Benchmarks</text>

<rect x="210" y="214" width="95" height="20" rx="3" fill="rgb(55,138,221)" opacity="0.15"/>
<rect x="313" y="214" width="107" height="20" rx="3" fill="rgb(239,120,60)" opacity="0.15"/>
<rect x="428" y="214" width="41" height="20" rx="3" fill="rgb(180,100,220)" opacity="0.15"/>
<rect x="477" y="214" width="53" height="20" rx="3" fill="rgb(29,158,117)" opacity="0.15"/>
<rect x="538" y="214" width="59" height="20" rx="3" fill="rgb(55,138,221)" opacity="0.15"/>
<rect x="605" y="214" width="41" height="20" rx="3" fill="rgb(239,159,39)" opacity="0.15"/>
<text x="257.5" y="228" text-anchor="middle" font-family="monospace" font-size="10" fill="rgb(55,138,221)">Windows Server</text>
<text x="366.5" y="228" text-anchor="middle" font-family="monospace" font-size="10" fill="rgb(239,120,60)">Active Directory</text>
<text x="448.5" y="228" text-anchor="middle" font-family="monospace" font-size="10" fill="rgb(180,100,220)">Linux</text>
<text x="503.5" y="228" text-anchor="middle" font-family="monospace" font-size="10" fill="rgb(29,158,117)">pfSense</text>
<text x="567.5" y="228" text-anchor="middle" font-family="monospace" font-size="10" fill="rgb(55,138,221)">Suricata</text>
<text x="625.5" y="228" text-anchor="middle" font-family="monospace" font-size="10" fill="rgb(239,159,39)">Wazuh</text>

<text x="212" y="256" font-family="monospace" font-size="10" fill="rgb(255,255,255)" opacity="0.5">github.com/MaxBell10</text>
<text x="212" y="269" font-family="monospace" font-size="10" fill="rgb(255,255,255)" opacity="0.5">Belgium · Open to in-house security roles</text>

<circle cx="548" cy="48" r="3" fill="rgb(29,158,117)" opacity="0.6"/>
<circle cx="582" cy="34" r="2" fill="rgb(55,138,221)" opacity="0.5"/>
<circle cx="568" cy="68" r="2.5" fill="rgb(239,159,39)" opacity="0.5"/>
<circle cx="538" cy="80" r="2" fill="rgb(29,158,117)" opacity="0.4"/>
<circle cx="600" cy="56" r="3" fill="rgb(55,138,221)" opacity="0.5"/>
<circle cx="614" cy="86" r="2" fill="rgb(239,159,39)" opacity="0.4"/>
<circle cx="588" cy="100" r="2.5" fill="rgb(29,158,117)" opacity="0.5"/>
<circle cx="558" cy="108" r="2" fill="rgb(55,138,221)" opacity="0.4"/>
<line x1="548" y1="48" x2="582" y2="34" stroke="rgb(55,138,221)" stroke-width="0.8" opacity="0.35" fill="none"/>
<line x1="582" y1="34" x2="600" y2="56" stroke="rgb(55,138,221)" stroke-width="0.8" opacity="0.35" fill="none"/>
<line x1="600" y1="56" x2="568" y2="68" stroke="rgb(55,138,221)" stroke-width="0.8" opacity="0.35" fill="none"/>
<line x1="568" y1="68" x2="614" y2="86" stroke="rgb(55,138,221)" stroke-width="0.8" opacity="0.35" fill="none"/>
<line x1="548" y1="48" x2="538" y2="80" stroke="rgb(55,138,221)" stroke-width="0.8" opacity="0.35" fill="none"/>
<line x1="538" y1="80" x2="558" y2="108" stroke="rgb(55,138,221)" stroke-width="0.8" opacity="0.35" fill="none"/>
<line x1="568" y1="68" x2="588" y2="100" stroke="rgb(55,138,221)" stroke-width="0.8" opacity="0.35" fill="none"/>
<line x1="614" y1="86" x2="588" y2="100" stroke="rgb(55,138,221)" stroke-width="0.8" opacity="0.35" fill="none"/>
</svg>
